HIERARCHY
ROOT Hips
{
	OFFSET 0.000000 0.000000 0.000000
	CHANNELS 6 Xposition Yposition Zposition Xrotation Yrotation Zrotation
	JOINT LeftUpLeg_virtual
	{
		OFFSET 0.000000 0.000000 0.000000
		CHANNELS 3 Xrotation Yrotation Zrotation
		JOINT LeftUpLeg
		{
			OFFSET 11.394100 -6.187798 -0.413800
			CHANNELS 3 Xrotation Yrotation Zrotation
			JOINT LeftLeg
			{
				OFFSET 0.430247 -32.302673 3.732800
				CHANNELS 3 Xrotation Yrotation Zrotation
				JOINT LeftFoot
				{
					OFFSET -0.430247 -48.264931 -6.423300
					CHANNELS 3 Xrotation Yrotation Zrotation
					JOINT LeftToeBase
					{
						OFFSET 4.230900 -16.068199 23.438400
						CHANNELS 3 Xrotation Yrotation Zrotation
						JOINT LeftToe_End
						{
							OFFSET 4.510700 0.695400 19.974600
							CHANNELS 3 Xrotation Yrotation Zrotation
							End Site
							{
								OFFSET 0 0 0
							}
						}
					}
				}
			}
		}
	}
	JOINT RightUpLeg_virtual
	{
		OFFSET 0.000000 0.000000 0.000000
		CHANNELS 3 Xrotation Yrotation Zrotation
		JOINT RightUpLeg
		{
			OFFSET -11.333700 -6.187798 -0.413800
			CHANNELS 3 Xrotation Yrotation Zrotation
			JOINT RightLeg
			{
				OFFSET -0.430392 -32.302628 3.733000
				CHANNELS 3 Xrotation Yrotation Zrotation
				JOINT RightFoot
				{
					OFFSET 0.430392 -48.264973 -6.423500
					CHANNELS 3 Xrotation Yrotation Zrotation
					JOINT RightToeBase
					{
						OFFSET -4.230900 -16.068199 23.438400
						CHANNELS 3 Xrotation Yrotation Zrotation
						JOINT RightToe_End
						{
							OFFSET -4.510700 0.695400 19.974600
							CHANNELS 3 Xrotation Yrotation Zrotation
							End Site
							{
								OFFSET 0 0 0
							}
						}
					}
				}
			}
		}
	}
	JOINT Spine_virtual
	{
		OFFSET 0.000000 0.000000 0.000000
		CHANNELS 3 Xrotation Yrotation Zrotation
		JOINT Spine
		{
			OFFSET -0.002400 12.777504 0.315300
			CHANNELS 3 Xrotation Yrotation Zrotation
			JOINT Spine1
			{
				OFFSET -0.002067 5.816869 0.032633
				CHANNELS 3 Xrotation Yrotation Zrotation
				JOINT Spine1_split
				{
					OFFSET -0.002067 5.816869 0.032633
					CHANNELS 3 Xrotation Yrotation Zrotation
					JOINT Spine2
					{
						OFFSET -0.002067 5.816869 0.032633
						CHANNELS 3 Xrotation Yrotation Zrotation
						JOINT Neck_virtual
						{
							OFFSET 0.000000 0.000000 0.000000
							CHANNELS 3 Xrotation Yrotation Zrotation
							JOINT Neck
							{
								OFFSET -0.003700 21.199493 -0.826900
								CHANNELS 3 Xrotation Yrotation Zrotation
								JOINT Head
								{
									OFFSET 0.000000 20.442200 4.834800
									CHANNELS 3 Xrotation Yrotation Zrotation
									JOINT HeadTop_End
									{
										OFFSET 0.000000 34.668396 4.968400
										CHANNELS 3 Xrotation Yrotation Zrotation
										End Site
										{
											OFFSET 0 0 0
										}
									}
								}
							}
						}
						JOINT LeftShoulder_virtual
						{
							OFFSET 0.000000 0.000000 0.000000
							CHANNELS 3 Xrotation Yrotation Zrotation
							JOINT LeftShoulder
							{
								OFFSET 3.288150 8.794197 -1.372250
								CHANNELS 3 Xrotation Yrotation Zrotation
								JOINT LeftShoulder_split
								{
									OFFSET 3.288150 8.794197 -1.372250
									CHANNELS 3 Xrotation Yrotation Zrotation
									JOINT LeftArm
									{
										OFFSET 11.953299 -2.279007 -0.146200
										CHANNELS 3 Xrotation Yrotation Zrotation
										JOINT LeftForeArm
										{
											OFFSET 18.448900 0.000000 0.000000
											CHANNELS 3 Xrotation Yrotation Zrotation
											JOINT LeftHand
											{
												OFFSET 29.527798 0.000000 0.000000
												CHANNELS 3 Xrotation Yrotation Zrotation
												End Site
												{
													OFFSET 0 0 0
												}
											}
										}
									}
								}
							}
						}
						JOINT RightShoulder_virtual
						{
							OFFSET 0.000000 0.000000 0.000000
							CHANNELS 3 Xrotation Yrotation Zrotation
							JOINT RightShoulder
							{
								OFFSET -3.249400 8.794197 -1.372250
								CHANNELS 3 Xrotation Yrotation Zrotation
								JOINT RightShoulder_split
								{
									OFFSET -3.249400 8.794197 -1.372250
									CHANNELS 3 Xrotation Yrotation Zrotation
									JOINT RightArm
									{
										OFFSET -11.953299 -2.279007 -0.146200
										CHANNELS 3 Xrotation Yrotation Zrotation
										JOINT RightForeArm
										{
											OFFSET -18.448900 0.000000 0.000000
											CHANNELS 3 Xrotation Yrotation Zrotation
											JOINT RightHand
											{
												OFFSET -29.527802 0.000000 0.000000
												CHANNELS 3 Xrotation Yrotation Zrotation
												End Site
												{
													OFFSET 0 0 0
												}
											}
										}
									}
								}
							}
						}
					}
				}
			}
		}
	}
}
MOTION
Frames: 6
Frame Time: 0.03333333
1.225336 95.328659 -3.318287 0.000000 0.000000 0.000000 3.128531 -9.918699 -1.039387 -42.384606 4.594156 7.492502 28.766612 3.095828 4.551057 6.900741 -1.117599 -3.941256 2.168938 -0.863619 -1.804677 0.000000 0.000000 0.000000 2.834391 -10.278268 -1.011171 -13.729630 -12.020160 -11.610694 24.862259 -10.724441 -0.539155 -14.046079 -5.109352 14.987877 -0.655353 -0.251341 0.242474 0.000000 0.000000 0.000000 3.658510 -9.009818 -1.452993 21.663039 4.472330 1.452092 1.883155 2.009092 -0.454494 0.471210 -0.291778 0.247060 0.000000 0.000000 0.000000 2.491504 2.051228 -0.164441 -5.456145 16.355986 1.426484 8.000439 48.312401 -21.637184 0.000000 0.000000 0.000000 2.768907 2.333572 -0.411445 2.143624 -34.986152 5.729041 0.268649 0.577085 -4.599849 -25.059341 -15.809064 -66.712780 -0.323790 -45.733714 -7.845656 0.000000 0.000000 0.000000 3.295252 2.112259 -0.365299 8.572369 21.306003 -10.288134 -1.055713 3.634683 0.420771 -42.672853 14.652450 82.111182 -0.687700 53.162617 2.885330 0.000000 0.000000 0.000000 
1.357585 95.375977 -2.777664 0.000000 0.000000 0.000000 3.194194 -9.162606 -1.148550 -42.436266 4.740688 7.161036 28.971327 2.781583 4.632713 6.536419 -1.160296 -3.590668 2.127563 -0.885352 -1.760534 0.000000 0.000000 0.000000 2.879821 -9.594618 -1.118402 -12.832250 -11.989804 -11.644065 24.287295 -11.279566 -0.502168 -14.078047 -5.309377 15.633985 -0.622399 -0.346864 0.359118 0.000000 0.000000 0.000000 3.779155 -8.280623 -1.550618 21.458282 4.535442 1.095696 1.828886 2.105692 -0.638552 0.471387 -0.274054 0.218786 0.000000 0.000000 0.000000 2.458467 2.145465 -0.378700 -5.500999 16.218247 1.741111 7.071167 47.960157 -20.729359 0.000000 0.000000 0.000000 2.772819 2.418196 -0.667548 2.003134 -35.533185 5.687267 0.045907 0.532067 -4.891625 -24.657531 -15.754048 -66.537142 -0.260695 -45.521630 -6.735124 0.000000 0.000000 0.000000 3.305077 2.249337 -0.603788 8.415596 20.437132 -10.014765 -0.810688 3.772055 0.381734 -42.982326 15.231511 83.058297 -0.695249 52.597876 2.471167 0.000000 0.000000 0.000000 
1.470296 95.406822 -2.241673 0.000000 0.000000 0.000000 3.281151 -8.510630 -1.204996 -42.485546 4.833054 6.846020 29.234299 2.539651 4.701054 6.150252 -1.184299 -3.297438 2.091421 -0.905923 -1.721575 0.000000 0.000000 0.000000 2.942853 -9.030966 -1.169271 -12.079076 -11.909166 -11.697276 23.830593 -11.746735 -0.489623 -14.130569 -5.489397 16.270829 -0.624864 -0.425646 0.456619 0.000000 0.000000 0.000000 3.925086 -7.666814 -1.587248 21.251985 4.546579 0.707461 1.784486 2.183490 -0.816937 0.482619 -0.246931 0.210207 0.000000 0.000000 0.000000 2.437092 2.222922 -0.591400 -5.597770 15.971950 2.098011 5.864859 47.423895 -19.515481 0.000000 0.000000 0.000000 2.777015 2.486198 -0.916874 1.863262 -36.045405 5.655736 -0.139240 0.519765 -5.118593 -24.056078 -15.850718 -66.314361 -0.236795 -45.475092 -5.663956 0.000000 0.000000 0.000000 3.311699 2.367217 -0.830456 8.303563 19.816175 -9.814271 -0.649365 3.860337 0.394606 -43.198109 15.597674 83.866834 -0.778477 52.212053 2.205235 0.000000 0.000000 0.000000 
1.565353 95.417641 -1.730457 0.000000 0.000000 0.000000 3.394357 -7.956113 -1.220768 -42.552949 4.847235 6.541986 29.562333 2.355697 4.763304 5.760828 -1.197431 -3.075677 2.073282 -0.924140 -1.693343 0.000000 0.000000 0.000000 3.032330 -8.565955 -1.177404 -11.446338 -11.781270 -11.756705 23.455073 -12.133831 -0.504530 -14.247186 -5.659130 16.870702 -0.638094 -0.483238 0.530820 0.000000 0.000000 0.000000 4.095724 -7.170047 -1.585272 21.050891 4.499300 0.296307 1.746770 2.239489 -0.985305 0.468773 -0.194325 0.215629 0.000000 0.000000 0.000000 2.416513 2.280549 -0.799790 -5.756936 15.643957 2.512049 4.498777 46.781502 -18.042385 0.000000 0.000000 0.000000 2.781067 2.535353 -1.150073 1.741849 -36.546607 5.675813 -0.285161 0.543034 -5.282516 -23.281299 -16.079722 -66.066419 -0.250235 -45.578023 -4.648066 0.000000 0.000000 0.000000 3.315678 2.462252 -1.037725 8.229049 19.437386 -9.681316 -0.551617 3.904655 0.418329 -43.282311 15.740405 84.502766 -0.901592 51.942684 2.051548 0.000000 0.000000 0.000000 
1.652545 95.414993 -1.236565 0.000000 0.000000 0.000000 3.542897 -7.496067 -1.210172 -42.644672 4.774234 6.246643 29.946357 2.224103 4.825107 5.370202 -1.197689 -2.927639 2.090958 -0.938823 -1.683136 0.000000 0.000000 0.000000 3.158661 -8.187184 -1.156494 -10.915799 -11.618653 -11.809727 23.141811 -12.465431 -0.541102 -14.431604 -5.832048 17.391707 -0.610255 -0.515394 0.578504 0.000000 0.000000 0.000000 4.285957 -6.797374 -1.559805 20.866506 4.396215 -0.123543 1.716132 2.269282 -1.140116 0.449007 -0.118724 0.227256 0.000000 0.000000 0.000000 2.393259 2.317134 -0.999286 -5.981367 15.265181 3.003188 3.083589 46.112181 -16.385448 0.000000 0.000000 0.000000 2.785399 2.559637 -1.361416 1.646320 -37.061423 5.758417 -0.404073 0.659651 -5.402809 -22.393139 -16.410296 -65.829479 -0.297641 -45.770238 -3.689536 0.000000 0.000000 0.000000 3.317107 2.531228 -1.225866 8.186705 19.273831 -9.617346 -0.508563 3.920707 0.426558 -43.242102 15.659334 84.944986 -1.039608 51.774821 1.975180 0.000000 0.000000 0.000000 
1.732298 95.404175 -0.777199 0.000000 0.000000 0.000000 3.722068 -7.120486 -1.186011 -42.749836 4.632219 5.967838 30.348607 2.145964 4.885630 4.973751 -1.185014 -2.846020 2.140514 -0.949198 -1.686827 0.000000 0.000000 0.000000 3.316746 -7.883422 -1.119942 -10.490341 -11.445447 -11.856047 22.876590 -12.755339 -0.588258 -14.642449 -6.007076 17.826001 -0.525633 -0.518997 0.591192 0.000000 0.000000 0.000000 4.484949 -6.539836 -1.520382 20.711278 4.245084 -0.536225 1.684331 2.270753 -1.281200 0.450404 -0.034164 0.227595 0.000000 0.000000 0.000000 2.364856 2.330625 -1.187936 -6.268240 14.864991 3.561652 1.711570 45.480860 -14.643154 0.000000 0.000000 0.000000 2.788930 2.557897 -1.551161 1.578873 -37.610560 5.887828 -0.559617 0.846284 -5.494736 -21.413545 -16.814531 -65.609534 -0.376702 -45.986745 -2.786094 0.000000 0.000000 0.000000 3.317270 2.569470 -1.395579 8.169057 19.285497 -9.618407 -0.496645 3.984695 0.372415 -43.103046 15.417771 85.232141 -1.169270 51.719920 1.947260 0.000000 0.000000 0.000000 
